<mxfile modified="2023-07-15T05:32:01.214Z" host="drawio-plugin" agent="5.0 (X11; Linux x86_64) AppleWebKit/537.36 (KHTML, like Gecko) Chrome/104.0.5112.102 Safari/537.36" etag="0FI1hy4rwnl0szklR_Hz" version="15.5.4" type="embed" pages="4"><diagram id="Mz-tpbVuLE1fPB4WvgSF" name="Technische Umsetzung"><mxGraphModel dx="707" dy="559" grid="1" gridSize="10" guides="1" tooltips="1" connect="1" arrows="1" fold="1" page="1" pageScale="1" pageWidth="827" pageHeight="1169" math="0" shadow="0"><root><mxCell id="0"/><mxCell id="1" parent="0"/><mxCell id="eveTwST119jRxMjcaIn--9" style="edgeStyle=orthogonalEdgeStyle;rounded=0;orthogonalLoop=1;jettySize=auto;html=1;exitX=1;exitY=0.5;exitDx=0;exitDy=0;entryX=0;entryY=0.5;entryDx=0;entryDy=0;endArrow=none;endFill=0;" parent="1" source="eveTwST119jRxMjcaIn--1" target="eveTwST119jRxMjcaIn--8" edge="1"><mxGeometry relative="1" as="geometry"/></mxCell><mxCell id="eveTwST119jRxMjcaIn--11" style="edgeStyle=orthogonalEdgeStyle;rounded=0;orthogonalLoop=1;jettySize=auto;html=1;exitX=0.5;exitY=1;exitDx=0;exitDy=0;entryX=0.5;entryY=0;entryDx=0;entryDy=0;endArrow=none;endFill=0;" parent="1" source="eveTwST119jRxMjcaIn--1" target="eveTwST119jRxMjcaIn--6" edge="1"><mxGeometry relative="1" as="geometry"/></mxCell><mxCell id="eveTwST119jRxMjcaIn--1" value="&lt;br&gt;10 Tage" style="rounded=1;whiteSpace=wrap;html=1;" parent="1" vertex="1"><mxGeometry x="290" y="400" width="150" height="90" as="geometry"/></mxCell><mxCell id="eveTwST119jRxMjcaIn--3" value="&lt;font style=&quot;font-size: 13px&quot;&gt;&lt;i&gt;&lt;b&gt;Backend&lt;/b&gt;&lt;/i&gt;&lt;/font&gt;" style="text;html=1;strokeColor=none;fillColor=none;align=center;verticalAlign=middle;whiteSpace=wrap;rounded=0;" parent="1" vertex="1"><mxGeometry x="320" y="425" width="90" height="20" as="geometry"/></mxCell><mxCell id="eveTwST119jRxMjcaIn--4" value="&lt;i&gt;&lt;b&gt;Datenbank&lt;/b&gt;&lt;/i&gt;&lt;br&gt;" style="shape=cylinder;whiteSpace=wrap;html=1;boundedLbl=1;backgroundOutline=1;" parent="1" vertex="1"><mxGeometry x="546.5" y="391.25" width="80" height="117.5" as="geometry"/></mxCell><mxCell id="eveTwST119jRxMjcaIn--15" style="edgeStyle=orthogonalEdgeStyle;rounded=0;orthogonalLoop=1;jettySize=auto;html=1;exitX=0;exitY=0.5;exitDx=0;exitDy=0;entryX=1;entryY=0.5;entryDx=0;entryDy=0;endArrow=none;endFill=0;" parent="1" source="eveTwST119jRxMjcaIn--6" target="eveTwST119jRxMjcaIn--12" edge="1"><mxGeometry relative="1" as="geometry"><mxPoint x="189.64705882352928" y="554.5882352941176" as="targetPoint"/></mxGeometry></mxCell><mxCell id="eveTwST119jRxMjcaIn--17" style="edgeStyle=orthogonalEdgeStyle;rounded=0;orthogonalLoop=1;jettySize=auto;html=1;exitX=0.5;exitY=1;exitDx=0;exitDy=0;entryX=0.5;entryY=0;entryDx=0;entryDy=0;endArrow=none;endFill=0;" parent="1" source="eveTwST119jRxMjcaIn--6" target="eveTwST119jRxMjcaIn--13" edge="1"><mxGeometry relative="1" as="geometry"/></mxCell><mxCell id="eveTwST119jRxMjcaIn--6" value="&lt;b&gt;&lt;i&gt;GameWeb API&lt;/i&gt;&lt;/b&gt;&lt;br&gt;4 Tage" style="rounded=0;whiteSpace=wrap;html=1;strokeWidth=2;" parent="1" vertex="1"><mxGeometry x="305" y="490" width="120" height="60" as="geometry"/></mxCell><mxCell id="eveTwST119jRxMjcaIn--10" style="edgeStyle=orthogonalEdgeStyle;rounded=0;orthogonalLoop=1;jettySize=auto;html=1;exitX=1;exitY=0.5;exitDx=0;exitDy=0;entryX=0;entryY=0.5;entryDx=0;entryDy=0;endArrow=none;endFill=0;" parent="1" source="eveTwST119jRxMjcaIn--8" target="eveTwST119jRxMjcaIn--4" edge="1"><mxGeometry relative="1" as="geometry"/></mxCell><mxCell id="eveTwST119jRxMjcaIn--8" value="&lt;b&gt;&lt;i&gt;Persistence API&lt;/i&gt;&lt;/b&gt;&lt;br&gt;2 Tage" style="rounded=0;whiteSpace=wrap;html=1;strokeWidth=2;" parent="1" vertex="1"><mxGeometry x="440" y="420" width="80" height="60" as="geometry"/></mxCell><mxCell id="eveTwST119jRxMjcaIn--12" value="(Discord Frontend)" style="rounded=0;whiteSpace=wrap;html=1;" parent="1" vertex="1"><mxGeometry x="130" y="490" width="120" height="60" as="geometry"/></mxCell><mxCell id="eveTwST119jRxMjcaIn--13" value="&lt;b&gt;&lt;i&gt;Web Frontend&lt;br&gt;&lt;/i&gt;&lt;/b&gt;8 Tage" style="rounded=0;whiteSpace=wrap;html=1;" parent="1" vertex="1"><mxGeometry x="305" y="580" width="120" height="60" as="geometry"/></mxCell><mxCell id="eveTwST119jRxMjcaIn--18" value="30 Personentage insgesamt" style="rounded=0;whiteSpace=wrap;html=1;strokeWidth=2;strokeColor=#000000;" parent="1" vertex="1"><mxGeometry x="130" y="360" width="120" height="60" as="geometry"/></mxCell><mxCell id="eveTwST119jRxMjcaIn--19" value="6 Tage&lt;br&gt;" style="text;html=1;resizable=0;points=[];autosize=1;align=left;verticalAlign=top;spacingTop=-4;" parent="1" vertex="1"><mxGeometry x="561.5" y="480" width="50" height="20" as="geometry"/></mxCell><mxCell id="hj5eIEU2LAgetrZz2vU--1" value="&lt;div style=&quot;text-align: left&quot;&gt;&lt;span&gt;&lt;b&gt;&lt;i&gt;Backend in Python&lt;/i&gt;&lt;/b&gt;&lt;/span&gt;&lt;/div&gt;&lt;div style=&quot;text-align: left&quot;&gt;&lt;span&gt;- Spiellogik&lt;/span&gt;&lt;/div&gt;&lt;div style=&quot;text-align: left&quot;&gt;&lt;span&gt;- &lt;/span&gt;&lt;span&gt;User Logik&lt;/span&gt;&lt;/div&gt;" style="rounded=0;whiteSpace=wrap;html=1;strokeColor=#000000;" parent="1" vertex="1"><mxGeometry x="466.5" y="530" width="240" height="90" as="geometry"/></mxCell><mxCell id="hj5eIEU2LAgetrZz2vU--3" value="&lt;div style=&quot;text-align: left&quot;&gt;&lt;span&gt;&lt;b&gt;&lt;i&gt;Frontend in Typescript/HTML/CSS&lt;/i&gt;&lt;/b&gt;&lt;/span&gt;&lt;/div&gt;&lt;div style=&quot;text-align: left&quot;&gt;- siehe UseCase&lt;/div&gt;" style="rounded=0;whiteSpace=wrap;html=1;strokeColor=#000000;" parent="1" vertex="1"><mxGeometry x="466.5" y="620" width="240" height="90" as="geometry"/></mxCell><mxCell id="hj5eIEU2LAgetrZz2vU--4" value="&lt;div style=&quot;text-align: left&quot;&gt;&lt;span&gt;&lt;b&gt;&lt;i&gt;Database in MongoDB?&lt;/i&gt;&lt;/b&gt;&lt;/span&gt;&lt;/div&gt;&lt;div style=&quot;text-align: left&quot;&gt;&lt;span&gt;- Userdaten&lt;/span&gt;&lt;/div&gt;&lt;div style=&quot;text-align: left&quot;&gt;&lt;span&gt;- Zugangsdaten&lt;/span&gt;&lt;/div&gt;&lt;div style=&quot;text-align: left&quot;&gt;&lt;span&gt;- Spielergebnisse&lt;/span&gt;&lt;/div&gt;&lt;div style=&quot;text-align: left&quot;&gt;&lt;span&gt;&lt;br&gt;&lt;/span&gt;&lt;/div&gt;" style="rounded=0;whiteSpace=wrap;html=1;strokeColor=#000000;" parent="1" vertex="1"><mxGeometry x="706.5" y="620" width="240" height="90" as="geometry"/></mxCell><mxCell id="hj5eIEU2LAgetrZz2vU--5" value="&lt;div style=&quot;text-align: left&quot;&gt;&lt;span&gt;&lt;b&gt;&lt;i&gt;Web API with Flask&lt;/i&gt;&lt;/b&gt;&lt;/span&gt;&lt;/div&gt;&lt;div style=&quot;text-align: left&quot;&gt;- Tokenbasierter Austausch&lt;/div&gt;&lt;div style=&quot;text-align: left&quot;&gt;- REST api&lt;/div&gt;" style="rounded=0;whiteSpace=wrap;html=1;strokeColor=#000000;" parent="1" vertex="1"><mxGeometry x="706.5" y="530" width="240" height="90" as="geometry"/></mxCell></root></mxGraphModel></diagram><diagram id="DsGU7y9vnRXp9Hcj6hWG" name="Use Case"><mxGraphModel dx="707" dy="559" grid="1" gridSize="10" guides="1" tooltips="1" connect="1" arrows="1" fold="1" page="1" pageScale="1" pageWidth="827" pageHeight="1169" math="0" shadow="0"><root><mxCell id="2wAqh8zBqm8X24xqyu5U-0"/><mxCell id="2wAqh8zBqm8X24xqyu5U-1" parent="2wAqh8zBqm8X24xqyu5U-0"/><mxCell id="c4m_T-h51378Y_wtgnFa-25" value="User" style="shape=umlActor;verticalLabelPosition=bottom;verticalAlign=top;html=1;outlineConnect=0;" parent="2wAqh8zBqm8X24xqyu5U-1" vertex="1"><mxGeometry x="90" y="90" width="30" height="60" as="geometry"/></mxCell><mxCell id="c4m_T-h51378Y_wtgnFa-26" value="" style="endArrow=none;html=1;rounded=0;" parent="2wAqh8zBqm8X24xqyu5U-1" edge="1"><mxGeometry width="50" height="50" relative="1" as="geometry"><mxPoint x="160" y="730" as="sourcePoint"/><mxPoint x="160" y="20" as="targetPoint"/></mxGeometry></mxCell><mxCell id="c4m_T-h51378Y_wtgnFa-27" value="" style="endArrow=none;html=1;rounded=0;" parent="2wAqh8zBqm8X24xqyu5U-1" edge="1"><mxGeometry width="50" height="50" relative="1" as="geometry"><mxPoint x="720" y="730" as="sourcePoint"/><mxPoint x="720" y="20" as="targetPoint"/></mxGeometry></mxCell><mxCell id="c4m_T-h51378Y_wtgnFa-28" value="" style="edgeStyle=orthogonalEdgeStyle;rounded=0;orthogonalLoop=1;jettySize=auto;html=1;" parent="2wAqh8zBqm8X24xqyu5U-1" source="c4m_T-h51378Y_wtgnFa-29" target="c4m_T-h51378Y_wtgnFa-32" edge="1"><mxGeometry relative="1" as="geometry"/></mxCell><mxCell id="c4m_T-h51378Y_wtgnFa-29" value="Account erstellen" style="ellipse;whiteSpace=wrap;html=1;" parent="2wAqh8zBqm8X24xqyu5U-1" vertex="1"><mxGeometry x="190" y="110" width="120" height="80" as="geometry"/></mxCell><mxCell id="c4m_T-h51378Y_wtgnFa-30" value="" style="edgeStyle=orthogonalEdgeStyle;rounded=0;orthogonalLoop=1;jettySize=auto;html=1;entryX=0;entryY=0.5;entryDx=0;entryDy=0;exitX=0.5;exitY=0;exitDx=0;exitDy=0;" parent="2wAqh8zBqm8X24xqyu5U-1" source="c4m_T-h51378Y_wtgnFa-31" target="c4m_T-h51378Y_wtgnFa-32" edge="1"><mxGeometry relative="1" as="geometry"><mxPoint x="410" y="240" as="targetPoint"/></mxGeometry></mxCell><mxCell id="c4m_T-h51378Y_wtgnFa-31" value="Login eintippen" style="ellipse;whiteSpace=wrap;html=1;" parent="2wAqh8zBqm8X24xqyu5U-1" vertex="1"><mxGeometry x="260" y="190" width="120" height="80" as="geometry"/></mxCell><mxCell id="W7PotCLS3TrSIl0tCxkn-1" style="edgeStyle=none;rounded=0;orthogonalLoop=1;jettySize=auto;html=1;dashed=1;" parent="2wAqh8zBqm8X24xqyu5U-1" source="c4m_T-h51378Y_wtgnFa-32" target="W7PotCLS3TrSIl0tCxkn-0" edge="1"><mxGeometry relative="1" as="geometry"/></mxCell><mxCell id="c4m_T-h51378Y_wtgnFa-32" value="Anmeldung" style="ellipse;whiteSpace=wrap;html=1;" parent="2wAqh8zBqm8X24xqyu5U-1" vertex="1"><mxGeometry x="400" y="110" width="120" height="80" as="geometry"/></mxCell><mxCell id="c4m_T-h51378Y_wtgnFa-34" value="" style="endArrow=classic;html=1;rounded=0;exitX=1;exitY=0.5;exitDx=0;exitDy=0;entryX=0.5;entryY=0;entryDx=0;entryDy=0;" parent="2wAqh8zBqm8X24xqyu5U-1" source="c4m_T-h51378Y_wtgnFa-32" target="c4m_T-h51378Y_wtgnFa-36" edge="1"><mxGeometry width="50" height="50" relative="1" as="geometry"><mxPoint x="510" y="340" as="sourcePoint"/><mxPoint x="600" y="190" as="targetPoint"/><Array as="points"><mxPoint x="600" y="150"/></Array></mxGeometry></mxCell><mxCell id="c4m_T-h51378Y_wtgnFa-35" value="" style="edgeStyle=orthogonalEdgeStyle;rounded=0;orthogonalLoop=1;jettySize=auto;html=1;" parent="2wAqh8zBqm8X24xqyu5U-1" source="c4m_T-h51378Y_wtgnFa-36" target="c4m_T-h51378Y_wtgnFa-37" edge="1"><mxGeometry relative="1" as="geometry"/></mxCell><mxCell id="c4m_T-h51378Y_wtgnFa-36" value="spielen" style="ellipse;whiteSpace=wrap;html=1;" parent="2wAqh8zBqm8X24xqyu5U-1" vertex="1"><mxGeometry x="540" y="300" width="120" height="80" as="geometry"/></mxCell><mxCell id="c4m_T-h51378Y_wtgnFa-37" value="Spiel aufgeben" style="ellipse;whiteSpace=wrap;html=1;" parent="2wAqh8zBqm8X24xqyu5U-1" vertex="1"><mxGeometry x="540" y="420" width="120" height="80" as="geometry"/></mxCell><mxCell id="c4m_T-h51378Y_wtgnFa-38" value="Spiel zuende spielen" style="ellipse;whiteSpace=wrap;html=1;" parent="2wAqh8zBqm8X24xqyu5U-1" vertex="1"><mxGeometry x="400" y="420" width="120" height="80" as="geometry"/></mxCell><mxCell id="c4m_T-h51378Y_wtgnFa-39" value="" style="endArrow=classic;html=1;rounded=0;exitX=0;exitY=0.5;exitDx=0;exitDy=0;entryX=0.5;entryY=0;entryDx=0;entryDy=0;" parent="2wAqh8zBqm8X24xqyu5U-1" source="c4m_T-h51378Y_wtgnFa-36" target="c4m_T-h51378Y_wtgnFa-38" edge="1"><mxGeometry width="50" height="50" relative="1" as="geometry"><mxPoint x="700" y="540" as="sourcePoint"/><mxPoint x="750" y="490" as="targetPoint"/><Array as="points"><mxPoint x="460" y="340"/></Array></mxGeometry></mxCell><mxCell id="c4m_T-h51378Y_wtgnFa-42" value="abmelden" style="ellipse;whiteSpace=wrap;html=1;" parent="2wAqh8zBqm8X24xqyu5U-1" vertex="1"><mxGeometry x="460" y="560" width="120" height="80" as="geometry"/></mxCell><mxCell id="c4m_T-h51378Y_wtgnFa-43" value="" style="endArrow=classic;html=1;rounded=0;exitX=0.5;exitY=1;exitDx=0;exitDy=0;entryX=0.5;entryY=0;entryDx=0;entryDy=0;" parent="2wAqh8zBqm8X24xqyu5U-1" source="c4m_T-h51378Y_wtgnFa-38" target="c4m_T-h51378Y_wtgnFa-42" edge="1"><mxGeometry width="50" height="50" relative="1" as="geometry"><mxPoint x="550" y="340" as="sourcePoint"/><mxPoint x="600" y="290" as="targetPoint"/><Array as="points"><mxPoint x="460" y="530"/><mxPoint x="520" y="530"/></Array></mxGeometry></mxCell><mxCell id="c4m_T-h51378Y_wtgnFa-44" value="" style="endArrow=classic;html=1;rounded=0;exitX=0.5;exitY=1;exitDx=0;exitDy=0;entryX=0.5;entryY=0;entryDx=0;entryDy=0;" parent="2wAqh8zBqm8X24xqyu5U-1" target="c4m_T-h51378Y_wtgnFa-42" edge="1"><mxGeometry width="50" height="50" relative="1" as="geometry"><mxPoint x="600" y="500" as="sourcePoint"/><mxPoint x="660" y="570" as="targetPoint"/><Array as="points"><mxPoint x="600" y="530"/><mxPoint x="520" y="530"/></Array></mxGeometry></mxCell><mxCell id="c4m_T-h51378Y_wtgnFa-45" value="" style="endArrow=none;html=1;rounded=0;" parent="2wAqh8zBqm8X24xqyu5U-1" edge="1"><mxGeometry width="50" height="50" relative="1" as="geometry"><mxPoint x="160" y="20" as="sourcePoint"/><mxPoint x="720" y="20" as="targetPoint"/><Array as="points"><mxPoint x="420" y="20"/></Array></mxGeometry></mxCell><mxCell id="c4m_T-h51378Y_wtgnFa-46" value="" style="endArrow=none;html=1;rounded=0;" parent="2wAqh8zBqm8X24xqyu5U-1" edge="1"><mxGeometry width="50" height="50" relative="1" as="geometry"><mxPoint x="160" y="730" as="sourcePoint"/><mxPoint x="720" y="730" as="targetPoint"/></mxGeometry></mxCell><mxCell id="c4m_T-h51378Y_wtgnFa-47" value="" style="endArrow=classic;html=1;rounded=0;exitX=0.5;exitY=1;exitDx=0;exitDy=0;entryX=0.5;entryY=0;entryDx=0;entryDy=0;" parent="2wAqh8zBqm8X24xqyu5U-1" target="c4m_T-h51378Y_wtgnFa-36" edge="1"><mxGeometry width="50" height="50" relative="1" as="geometry"><mxPoint x="600" y="270" as="sourcePoint"/><mxPoint x="600" y="290" as="targetPoint"/></mxGeometry></mxCell><mxCell id="c4m_T-h51378Y_wtgnFa-48" value="" style="endArrow=classic;html=1;rounded=0;entryX=0;entryY=0.5;entryDx=0;entryDy=0;" parent="2wAqh8zBqm8X24xqyu5U-1" target="c4m_T-h51378Y_wtgnFa-42" edge="1"><mxGeometry width="50" height="50" relative="1" as="geometry"><mxPoint x="250" y="290" as="sourcePoint"/><mxPoint x="600" y="290" as="targetPoint"/><Array as="points"><mxPoint x="250" y="600"/></Array></mxGeometry></mxCell><mxCell id="c4m_T-h51378Y_wtgnFa-49" value="" style="endArrow=none;html=1;rounded=0;exitX=0.5;exitY=1;exitDx=0;exitDy=0;" parent="2wAqh8zBqm8X24xqyu5U-1" source="c4m_T-h51378Y_wtgnFa-32" edge="1"><mxGeometry width="50" height="50" relative="1" as="geometry"><mxPoint x="550" y="340" as="sourcePoint"/><mxPoint x="250" y="290" as="targetPoint"/><Array as="points"><mxPoint x="460" y="290"/></Array></mxGeometry></mxCell><mxCell id="W7PotCLS3TrSIl0tCxkn-0" value="kann Ergebnisse einsehen" style="ellipse;whiteSpace=wrap;html=1;" parent="2wAqh8zBqm8X24xqyu5U-1" vertex="1"><mxGeometry x="590" y="30" width="120" height="80" as="geometry"/></mxCell><mxCell id="W7PotCLS3TrSIl0tCxkn-2" value="&amp;lt;&amp;lt;includes&amp;gt;&amp;gt;" style="text;html=1;align=center;verticalAlign=middle;resizable=0;points=[];autosize=1;" parent="2wAqh8zBqm8X24xqyu5U-1" vertex="1"><mxGeometry x="500" y="90" width="90" height="20" as="geometry"/></mxCell><mxCell id="rjg40GJaaP4MYX6c4tbn-0" value="" style="endArrow=none;html=1;rounded=0;entryX=0;entryY=0.5;entryDx=0;entryDy=0;" parent="2wAqh8zBqm8X24xqyu5U-1" source="c4m_T-h51378Y_wtgnFa-25" target="c4m_T-h51378Y_wtgnFa-29" edge="1"><mxGeometry width="50" height="50" relative="1" as="geometry"><mxPoint x="390" y="350" as="sourcePoint"/><mxPoint x="440" y="300" as="targetPoint"/></mxGeometry></mxCell><mxCell id="rjg40GJaaP4MYX6c4tbn-1" value="" style="endArrow=none;html=1;rounded=0;entryX=0;entryY=0.5;entryDx=0;entryDy=0;" parent="2wAqh8zBqm8X24xqyu5U-1" source="c4m_T-h51378Y_wtgnFa-25" target="c4m_T-h51378Y_wtgnFa-31" edge="1"><mxGeometry width="50" height="50" relative="1" as="geometry"><mxPoint x="130" y="135.29411764705878" as="sourcePoint"/><mxPoint x="200" y="160" as="targetPoint"/></mxGeometry></mxCell></root></mxGraphModel></diagram><diagram id="V7BbpruRScBJ53ouMjSl" name="Use Case Krass"><mxGraphModel dx="707" dy="1659" grid="1" gridSize="10" guides="1" tooltips="1" connect="1" arrows="1" fold="1" page="1" pageScale="1" pageWidth="850" pageHeight="1100" math="0" shadow="0"><root><mxCell id="uWqlE4B28N22d3HYyaB--0"/><mxCell id="uWqlE4B28N22d3HYyaB--1" parent="uWqlE4B28N22d3HYyaB--0"/><mxCell id="950WaDM0J3CiltBc7QUg-0" value="User" style="shape=umlActor;verticalLabelPosition=bottom;verticalAlign=top;html=1;outlineConnect=0;" parent="uWqlE4B28N22d3HYyaB--1" vertex="1"><mxGeometry x="300" y="180" width="30" height="60" as="geometry"/></mxCell><mxCell id="950WaDM0J3CiltBc7QUg-1" value="" style="endArrow=none;html=1;rounded=0;" parent="uWqlE4B28N22d3HYyaB--1" edge="1"><mxGeometry width="50" height="50" relative="1" as="geometry"><mxPoint x="370" y="820" as="sourcePoint"/><mxPoint x="370" y="-80" as="targetPoint"/></mxGeometry></mxCell><mxCell id="1iFf7YRKccMD_yizmdtM-2" style="edgeStyle=none;rounded=0;orthogonalLoop=1;jettySize=auto;html=1;entryX=0;entryY=0.5;entryDx=0;entryDy=0;" parent="uWqlE4B28N22d3HYyaB--1" target="XrXgIstzsyNV_GnbBVXM-0" edge="1"><mxGeometry relative="1" as="geometry"><mxPoint x="510" y="240" as="sourcePoint"/></mxGeometry></mxCell><mxCell id="950WaDM0J3CiltBc7QUg-4" value="Account erstellen" style="ellipse;whiteSpace=wrap;html=1;strokeColor=#00FF00;" parent="uWqlE4B28N22d3HYyaB--1" vertex="1"><mxGeometry x="400" y="200" width="120" height="80" as="geometry"/></mxCell><mxCell id="950WaDM0J3CiltBc7QUg-25" style="rounded=0;orthogonalLoop=1;jettySize=auto;html=1;" parent="uWqlE4B28N22d3HYyaB--1" target="950WaDM0J3CiltBc7QUg-6" edge="1"><mxGeometry relative="1" as="geometry"><mxPoint x="360" y="300" as="targetPoint"/><mxPoint x="340" y="260" as="sourcePoint"/></mxGeometry></mxCell><mxCell id="XrXgIstzsyNV_GnbBVXM-2" style="edgeStyle=none;rounded=0;orthogonalLoop=1;jettySize=auto;html=1;" parent="uWqlE4B28N22d3HYyaB--1" source="950WaDM0J3CiltBc7QUg-6" target="XrXgIstzsyNV_GnbBVXM-0" edge="1"><mxGeometry relative="1" as="geometry"/></mxCell><mxCell id="950WaDM0J3CiltBc7QUg-6" value="Login eintippen" style="ellipse;whiteSpace=wrap;html=1;strokeColor=#00FF00;" parent="uWqlE4B28N22d3HYyaB--1" vertex="1"><mxGeometry x="400" y="330" width="120" height="80" as="geometry"/></mxCell><mxCell id="950WaDM0J3CiltBc7QUg-21" value="" style="endArrow=none;html=1;rounded=0;" parent="uWqlE4B28N22d3HYyaB--1" edge="1"><mxGeometry width="50" height="50" relative="1" as="geometry"><mxPoint x="370" y="820" as="sourcePoint"/><mxPoint x="1240" y="820" as="targetPoint"/></mxGeometry></mxCell><mxCell id="950WaDM0J3CiltBc7QUg-26" style="rounded=0;orthogonalLoop=1;jettySize=auto;html=1;" parent="uWqlE4B28N22d3HYyaB--1" target="950WaDM0J3CiltBc7QUg-4" edge="1"><mxGeometry relative="1" as="geometry"><mxPoint x="434.70969813949705" y="347.6505566278722" as="targetPoint"/><mxPoint x="340" y="220" as="sourcePoint"/></mxGeometry></mxCell><mxCell id="f7Cmqxm9y2sCgUMezaw_-5" style="edgeStyle=none;rounded=0;orthogonalLoop=1;jettySize=auto;html=1;" parent="uWqlE4B28N22d3HYyaB--1" source="XrXgIstzsyNV_GnbBVXM-0" target="f7Cmqxm9y2sCgUMezaw_-4" edge="1"><mxGeometry relative="1" as="geometry"/></mxCell><mxCell id="f7Cmqxm9y2sCgUMezaw_-8" style="edgeStyle=none;rounded=0;orthogonalLoop=1;jettySize=auto;html=1;" parent="uWqlE4B28N22d3HYyaB--1" source="XrXgIstzsyNV_GnbBVXM-0" target="f7Cmqxm9y2sCgUMezaw_-7" edge="1"><mxGeometry relative="1" as="geometry"/></mxCell><mxCell id="1iFf7YRKccMD_yizmdtM-4" style="edgeStyle=none;rounded=0;orthogonalLoop=1;jettySize=auto;html=1;" parent="uWqlE4B28N22d3HYyaB--1" source="XrXgIstzsyNV_GnbBVXM-0" target="1iFf7YRKccMD_yizmdtM-0" edge="1"><mxGeometry relative="1" as="geometry"><mxPoint x="660" y="270" as="sourcePoint"/></mxGeometry></mxCell><mxCell id="ofcySZMgIAq1kejSAl98-1" style="edgeStyle=none;rounded=0;orthogonalLoop=1;jettySize=auto;html=1;" parent="uWqlE4B28N22d3HYyaB--1" source="XrXgIstzsyNV_GnbBVXM-0" target="ofcySZMgIAq1kejSAl98-0" edge="1"><mxGeometry relative="1" as="geometry"/></mxCell><mxCell id="XrXgIstzsyNV_GnbBVXM-0" value="Hauptseite &lt;br&gt;navigieren" style="ellipse;whiteSpace=wrap;html=1;strokeColor=#00FF00;" parent="uWqlE4B28N22d3HYyaB--1" vertex="1"><mxGeometry x="600" y="200" width="120" height="80" as="geometry"/></mxCell><mxCell id="f7Cmqxm9y2sCgUMezaw_-11" style="edgeStyle=none;rounded=0;orthogonalLoop=1;jettySize=auto;html=1;" parent="uWqlE4B28N22d3HYyaB--1" source="bNsUhSP-YNLJHRWiBHJs-0" target="f7Cmqxm9y2sCgUMezaw_-6" edge="1"><mxGeometry relative="1" as="geometry"/></mxCell><mxCell id="bNsUhSP-YNLJHRWiBHJs-0" value="Random Gegnersuche" style="ellipse;whiteSpace=wrap;html=1;strokeColor=#00FF00;" parent="uWqlE4B28N22d3HYyaB--1" vertex="1"><mxGeometry x="730" y="10" width="120" height="80" as="geometry"/></mxCell><mxCell id="f7Cmqxm9y2sCgUMezaw_-0" style="edgeStyle=none;rounded=0;orthogonalLoop=1;jettySize=auto;html=1;dashed=1;" parent="uWqlE4B28N22d3HYyaB--1" source="f7Cmqxm9y2sCgUMezaw_-3" target="f7Cmqxm9y2sCgUMezaw_-2" edge="1"><mxGeometry relative="1" as="geometry"><mxPoint x="720.8593317409843" y="228.7781205685103" as="sourcePoint"/></mxGeometry></mxCell><mxCell id="f7Cmqxm9y2sCgUMezaw_-1" value="" style="endArrow=classic;html=1;rounded=0;" parent="uWqlE4B28N22d3HYyaB--1" source="XrXgIstzsyNV_GnbBVXM-0" target="bNsUhSP-YNLJHRWiBHJs-0" edge="1"><mxGeometry width="50" height="50" relative="1" as="geometry"><mxPoint x="730" y="250" as="sourcePoint"/><mxPoint x="810" y="290" as="targetPoint"/></mxGeometry></mxCell><mxCell id="f7Cmqxm9y2sCgUMezaw_-2" value="kann Ergebnisse einsehen" style="ellipse;whiteSpace=wrap;html=1;strokeColor=#00FF00;" parent="uWqlE4B28N22d3HYyaB--1" vertex="1"><mxGeometry x="430" y="60" width="120" height="80" as="geometry"/></mxCell><mxCell id="i2P-ALpR6kwxFHsHRz56-3" style="rounded=0;orthogonalLoop=1;jettySize=auto;html=1;" parent="uWqlE4B28N22d3HYyaB--1" source="f7Cmqxm9y2sCgUMezaw_-4" target="i2P-ALpR6kwxFHsHRz56-2" edge="1"><mxGeometry relative="1" as="geometry"><mxPoint x="870" y="210" as="sourcePoint"/></mxGeometry></mxCell><mxCell id="i2P-ALpR6kwxFHsHRz56-5" style="edgeStyle=none;rounded=0;orthogonalLoop=1;jettySize=auto;html=1;dashed=1;" parent="uWqlE4B28N22d3HYyaB--1" source="f7Cmqxm9y2sCgUMezaw_-4" target="i2P-ALpR6kwxFHsHRz56-0" edge="1"><mxGeometry relative="1" as="geometry"/></mxCell><mxCell id="f7Cmqxm9y2sCgUMezaw_-4" value="manuelle Gegnersuche" style="ellipse;whiteSpace=wrap;html=1;" parent="uWqlE4B28N22d3HYyaB--1" vertex="1"><mxGeometry x="770" y="190" width="120" height="80" as="geometry"/></mxCell><mxCell id="f7Cmqxm9y2sCgUMezaw_-14" style="edgeStyle=none;rounded=0;orthogonalLoop=1;jettySize=auto;html=1;" parent="uWqlE4B28N22d3HYyaB--1" source="f7Cmqxm9y2sCgUMezaw_-6" target="f7Cmqxm9y2sCgUMezaw_-13" edge="1"><mxGeometry relative="1" as="geometry"/></mxCell><mxCell id="f7Cmqxm9y2sCgUMezaw_-15" style="edgeStyle=none;rounded=0;orthogonalLoop=1;jettySize=auto;html=1;" parent="uWqlE4B28N22d3HYyaB--1" source="f7Cmqxm9y2sCgUMezaw_-6" target="f7Cmqxm9y2sCgUMezaw_-12" edge="1"><mxGeometry relative="1" as="geometry"/></mxCell><mxCell id="i2P-ALpR6kwxFHsHRz56-6" style="edgeStyle=none;rounded=0;orthogonalLoop=1;jettySize=auto;html=1;dashed=1;" parent="uWqlE4B28N22d3HYyaB--1" source="f7Cmqxm9y2sCgUMezaw_-6" target="i2P-ALpR6kwxFHsHRz56-0" edge="1"><mxGeometry relative="1" as="geometry"/></mxCell><mxCell id="f7Cmqxm9y2sCgUMezaw_-6" value="Spielen" style="ellipse;whiteSpace=wrap;html=1;strokeColor=#00FF00;" parent="uWqlE4B28N22d3HYyaB--1" vertex="1"><mxGeometry x="1080" y="30" width="120" height="80" as="geometry"/></mxCell><mxCell id="f7Cmqxm9y2sCgUMezaw_-9" style="edgeStyle=none;rounded=0;orthogonalLoop=1;jettySize=auto;html=1;" parent="uWqlE4B28N22d3HYyaB--1" source="f7Cmqxm9y2sCgUMezaw_-7" target="f7Cmqxm9y2sCgUMezaw_-6" edge="1"><mxGeometry relative="1" as="geometry"/></mxCell><mxCell id="f7Cmqxm9y2sCgUMezaw_-7" value="Herausforderung annehmen" style="ellipse;whiteSpace=wrap;html=1;" parent="uWqlE4B28N22d3HYyaB--1" vertex="1"><mxGeometry x="770" y="100" width="120" height="80" as="geometry"/></mxCell><mxCell id="1iFf7YRKccMD_yizmdtM-1" style="edgeStyle=none;rounded=0;orthogonalLoop=1;jettySize=auto;html=1;" parent="uWqlE4B28N22d3HYyaB--1" source="f7Cmqxm9y2sCgUMezaw_-12" target="XrXgIstzsyNV_GnbBVXM-0" edge="1"><mxGeometry relative="1" as="geometry"/></mxCell><mxCell id="f7Cmqxm9y2sCgUMezaw_-12" value="Spiel abbrechen" style="ellipse;whiteSpace=wrap;html=1;strokeColor=#00FF00;" parent="uWqlE4B28N22d3HYyaB--1" vertex="1"><mxGeometry x="570" y="-70" width="120" height="80" as="geometry"/></mxCell><mxCell id="1iFf7YRKccMD_yizmdtM-3" style="edgeStyle=none;rounded=0;orthogonalLoop=1;jettySize=auto;html=1;" parent="uWqlE4B28N22d3HYyaB--1" source="f7Cmqxm9y2sCgUMezaw_-13" target="XrXgIstzsyNV_GnbBVXM-0" edge="1"><mxGeometry relative="1" as="geometry"/></mxCell><mxCell id="f7Cmqxm9y2sCgUMezaw_-13" value="Spiel zu &lt;br&gt;Ende spielen" style="ellipse;whiteSpace=wrap;html=1;strokeColor=#00FF00;" parent="uWqlE4B28N22d3HYyaB--1" vertex="1"><mxGeometry x="960" y="400" width="120" height="80" as="geometry"/></mxCell><mxCell id="1iFf7YRKccMD_yizmdtM-0" value="Abmelden" style="ellipse;whiteSpace=wrap;html=1;strokeColor=#00FF00;" parent="uWqlE4B28N22d3HYyaB--1" vertex="1"><mxGeometry x="400" y="460" width="120" height="80" as="geometry"/></mxCell><mxCell id="ofcySZMgIAq1kejSAl98-0" value="Verlauf einsehen" style="ellipse;whiteSpace=wrap;html=1;" parent="uWqlE4B28N22d3HYyaB--1" vertex="1"><mxGeometry x="560" y="410" width="120" height="80" as="geometry"/></mxCell><mxCell id="f7Cmqxm9y2sCgUMezaw_-3" value="&amp;lt;&amp;lt;includes&amp;gt;&amp;gt;" style="text;html=1;align=center;verticalAlign=middle;resizable=0;points=[];autosize=1;" parent="uWqlE4B28N22d3HYyaB--1" vertex="1"><mxGeometry x="530" y="160" width="90" height="20" as="geometry"/></mxCell><mxCell id="ofcySZMgIAq1kejSAl98-2" style="edgeStyle=none;rounded=0;orthogonalLoop=1;jettySize=auto;html=1;dashed=1;" parent="uWqlE4B28N22d3HYyaB--1" source="XrXgIstzsyNV_GnbBVXM-0" target="f7Cmqxm9y2sCgUMezaw_-3" edge="1"><mxGeometry relative="1" as="geometry"><mxPoint x="622.1898667079629" y="208.94167622439818" as="sourcePoint"/><mxPoint x="527.6728169168262" y="131.13239731321073" as="targetPoint"/></mxGeometry></mxCell><mxCell id="i2P-ALpR6kwxFHsHRz56-0" value="Chatten" style="ellipse;whiteSpace=wrap;html=1;" parent="uWqlE4B28N22d3HYyaB--1" vertex="1"><mxGeometry x="890" y="280" width="120" height="80" as="geometry"/></mxCell><mxCell id="i2P-ALpR6kwxFHsHRz56-4" style="edgeStyle=none;rounded=0;orthogonalLoop=1;jettySize=auto;html=1;" parent="uWqlE4B28N22d3HYyaB--1" source="i2P-ALpR6kwxFHsHRz56-2" target="f7Cmqxm9y2sCgUMezaw_-6" edge="1"><mxGeometry relative="1" as="geometry"/></mxCell><mxCell id="i2P-ALpR6kwxFHsHRz56-2" value="Herausfordern" style="ellipse;whiteSpace=wrap;html=1;" parent="uWqlE4B28N22d3HYyaB--1" vertex="1"><mxGeometry x="920" y="130" width="120" height="80" as="geometry"/></mxCell><mxCell id="i2P-ALpR6kwxFHsHRz56-10" value="&amp;lt;&amp;lt;includes&amp;gt;&amp;gt;" style="text;html=1;align=center;verticalAlign=middle;resizable=0;points=[];autosize=1;" parent="uWqlE4B28N22d3HYyaB--1" vertex="1"><mxGeometry x="905" y="260" width="90" height="20" as="geometry"/></mxCell><mxCell id="Tdl582Eu_d-XKG8enMbP-0" value="" style="endArrow=none;html=1;rounded=0;" parent="uWqlE4B28N22d3HYyaB--1" edge="1"><mxGeometry width="50" height="50" relative="1" as="geometry"><mxPoint x="370" y="-80" as="sourcePoint"/><mxPoint x="1240" y="-80" as="targetPoint"/></mxGeometry></mxCell><mxCell id="Tdl582Eu_d-XKG8enMbP-1" value="" style="endArrow=none;html=1;rounded=0;" parent="uWqlE4B28N22d3HYyaB--1" edge="1"><mxGeometry width="50" height="50" relative="1" as="geometry"><mxPoint x="1240" y="820" as="sourcePoint"/><mxPoint x="1240" y="-80" as="targetPoint"/></mxGeometry></mxCell></root></mxGraphModel></diagram><diagram id="70BYzGB6mCbuRJHWEQYq" name="states and functions"><mxGraphModel dx="1534" dy="559" grid="1" gridSize="10" guides="1" tooltips="1" connect="1" arrows="1" fold="1" page="1" pageScale="1" pageWidth="827" pageHeight="1169" math="0" shadow="0"><root><mxCell id="3QFZXOHNjbc3rMJE0DkH-0"/><mxCell id="3QFZXOHNjbc3rMJE0DkH-1" parent="3QFZXOHNjbc3rMJE0DkH-0"/><mxCell id="VQ9bmwxKybpuePnvpFht-0" value="" style="group" vertex="1" connectable="0" parent="3QFZXOHNjbc3rMJE0DkH-1"><mxGeometry x="60" y="305" width="120" height="150" as="geometry"/></mxCell><mxCell id="VQ9bmwxKybpuePnvpFht-1" value="" style="ellipse;whiteSpace=wrap;html=1;" vertex="1" parent="VQ9bmwxKybpuePnvpFht-0"><mxGeometry width="80" height="110" as="geometry"/></mxCell><mxCell id="VQ9bmwxKybpuePnvpFht-2" value="Player1" style="shape=umlActor;verticalLabelPosition=bottom;labelBackgroundColor=#ffffff;verticalAlign=top;html=1;outlineConnect=0;" vertex="1" parent="VQ9bmwxKybpuePnvpFht-0"><mxGeometry x="25" y="25" width="30" height="60" as="geometry"/></mxCell><mxCell id="VQ9bmwxKybpuePnvpFht-3" value="not in game" style="ellipse;whiteSpace=wrap;html=1;" vertex="1" parent="VQ9bmwxKybpuePnvpFht-0"><mxGeometry x="35" y="95" width="70" height="50" as="geometry"/></mxCell><mxCell id="VQ9bmwxKybpuePnvpFht-4" value="" style="group" vertex="1" connectable="0" parent="3QFZXOHNjbc3rMJE0DkH-1"><mxGeometry x="580" y="280" width="80" height="135" as="geometry"/></mxCell><mxCell id="VQ9bmwxKybpuePnvpFht-5" value="" style="ellipse;whiteSpace=wrap;html=1;" vertex="1" parent="VQ9bmwxKybpuePnvpFht-4"><mxGeometry width="80" height="110" as="geometry"/></mxCell><mxCell id="VQ9bmwxKybpuePnvpFht-6" value="Player2" style="shape=umlActor;verticalLabelPosition=bottom;labelBackgroundColor=#ffffff;verticalAlign=top;html=1;outlineConnect=0;" vertex="1" parent="VQ9bmwxKybpuePnvpFht-4"><mxGeometry x="25" y="25" width="30" height="60" as="geometry"/></mxCell><mxCell id="VQ9bmwxKybpuePnvpFht-7" value="not in game" style="ellipse;whiteSpace=wrap;html=1;" vertex="1" parent="VQ9bmwxKybpuePnvpFht-4"><mxGeometry x="-35" y="85" width="70" height="50" as="geometry"/></mxCell><mxCell id="VQ9bmwxKybpuePnvpFht-8" style="edgeStyle=none;rounded=0;orthogonalLoop=1;jettySize=auto;html=1;exitX=0;exitY=0.5;exitDx=0;exitDy=0;strokeColor=#000000;strokeWidth=1;" edge="1" parent="3QFZXOHNjbc3rMJE0DkH-1" source="VQ9bmwxKybpuePnvpFht-10" target="VQ9bmwxKybpuePnvpFht-3"><mxGeometry relative="1" as="geometry"/></mxCell><mxCell id="VQ9bmwxKybpuePnvpFht-9" style="edgeStyle=none;rounded=0;orthogonalLoop=1;jettySize=auto;html=1;exitX=0;exitY=0.5;exitDx=0;exitDy=0;strokeColor=#000000;strokeWidth=1;" edge="1" parent="3QFZXOHNjbc3rMJE0DkH-1" source="VQ9bmwxKybpuePnvpFht-10" target="VQ9bmwxKybpuePnvpFht-36"><mxGeometry relative="1" as="geometry"/></mxCell><mxCell id="VQ9bmwxKybpuePnvpFht-10" value="move" style="rounded=0;whiteSpace=wrap;html=1;" vertex="1" parent="3QFZXOHNjbc3rMJE0DkH-1"><mxGeometry x="303" y="270" width="110" height="60" as="geometry"/></mxCell><mxCell id="VQ9bmwxKybpuePnvpFht-11" value="fetch game" style="rounded=0;whiteSpace=wrap;html=1;" vertex="1" parent="3QFZXOHNjbc3rMJE0DkH-1"><mxGeometry x="303" y="525" width="110" height="60" as="geometry"/></mxCell><mxCell id="VQ9bmwxKybpuePnvpFht-12" value="fetch challenges" style="rounded=0;whiteSpace=wrap;html=1;" vertex="1" parent="3QFZXOHNjbc3rMJE0DkH-1"><mxGeometry x="303" y="450" width="110" height="60" as="geometry"/></mxCell><mxCell id="VQ9bmwxKybpuePnvpFht-13" style="edgeStyle=none;rounded=0;orthogonalLoop=1;jettySize=auto;html=1;exitX=0;exitY=0.5;exitDx=0;exitDy=0;strokeColor=#000000;strokeWidth=1;" edge="1" parent="3QFZXOHNjbc3rMJE0DkH-1" source="VQ9bmwxKybpuePnvpFht-14" target="VQ9bmwxKybpuePnvpFht-3"><mxGeometry relative="1" as="geometry"/></mxCell><mxCell id="VQ9bmwxKybpuePnvpFht-14" value="forfeit" style="rounded=0;whiteSpace=wrap;html=1;" vertex="1" parent="3QFZXOHNjbc3rMJE0DkH-1"><mxGeometry x="303" y="200" width="110" height="60" as="geometry"/></mxCell><mxCell id="VQ9bmwxKybpuePnvpFht-15" style="edgeStyle=none;rounded=0;orthogonalLoop=1;jettySize=auto;html=1;entryX=0;entryY=0.5;entryDx=0;entryDy=0;strokeColor=#000000;strokeWidth=1;" edge="1" parent="3QFZXOHNjbc3rMJE0DkH-1" source="VQ9bmwxKybpuePnvpFht-17" target="VQ9bmwxKybpuePnvpFht-19"><mxGeometry relative="1" as="geometry"/></mxCell><mxCell id="VQ9bmwxKybpuePnvpFht-16" style="edgeStyle=none;rounded=0;orthogonalLoop=1;jettySize=auto;html=1;exitX=1;exitY=0.5;exitDx=0;exitDy=0;entryX=0;entryY=0.5;entryDx=0;entryDy=0;strokeColor=#000000;strokeWidth=1;" edge="1" parent="3QFZXOHNjbc3rMJE0DkH-1" source="VQ9bmwxKybpuePnvpFht-17" target="VQ9bmwxKybpuePnvpFht-21"><mxGeometry relative="1" as="geometry"/></mxCell><mxCell id="VQ9bmwxKybpuePnvpFht-17" value="client" style="shape=cylinder;whiteSpace=wrap;html=1;boundedLbl=1;backgroundOutline=1;" vertex="1" parent="3QFZXOHNjbc3rMJE0DkH-1"><mxGeometry x="-210" y="330" width="60" height="80" as="geometry"/></mxCell><mxCell id="VQ9bmwxKybpuePnvpFht-18" style="rounded=0;orthogonalLoop=1;jettySize=auto;html=1;" edge="1" parent="3QFZXOHNjbc3rMJE0DkH-1" source="VQ9bmwxKybpuePnvpFht-19" target="VQ9bmwxKybpuePnvpFht-1"><mxGeometry relative="1" as="geometry"/></mxCell><mxCell id="VQ9bmwxKybpuePnvpFht-19" value="login" style="rounded=0;whiteSpace=wrap;html=1;" vertex="1" parent="3QFZXOHNjbc3rMJE0DkH-1"><mxGeometry x="-90" y="270" width="110" height="60" as="geometry"/></mxCell><mxCell id="VQ9bmwxKybpuePnvpFht-20" style="edgeStyle=none;rounded=0;orthogonalLoop=1;jettySize=auto;html=1;" edge="1" parent="3QFZXOHNjbc3rMJE0DkH-1" source="VQ9bmwxKybpuePnvpFht-21" target="VQ9bmwxKybpuePnvpFht-1"><mxGeometry relative="1" as="geometry"/></mxCell><mxCell id="VQ9bmwxKybpuePnvpFht-21" value="create user" style="rounded=0;whiteSpace=wrap;html=1;" vertex="1" parent="3QFZXOHNjbc3rMJE0DkH-1"><mxGeometry x="-90" y="340" width="110" height="60" as="geometry"/></mxCell><mxCell id="VQ9bmwxKybpuePnvpFht-22" style="edgeStyle=none;rounded=0;orthogonalLoop=1;jettySize=auto;html=1;exitX=0;exitY=0.5;exitDx=0;exitDy=0;strokeColor=#000000;strokeWidth=1;" edge="1" parent="3QFZXOHNjbc3rMJE0DkH-1" source="VQ9bmwxKybpuePnvpFht-23" target="VQ9bmwxKybpuePnvpFht-17"><mxGeometry relative="1" as="geometry"/></mxCell><mxCell id="VQ9bmwxKybpuePnvpFht-23" value="log out" style="rounded=0;whiteSpace=wrap;html=1;" vertex="1" parent="3QFZXOHNjbc3rMJE0DkH-1"><mxGeometry x="-90" y="410" width="110" height="60" as="geometry"/></mxCell><mxCell id="VQ9bmwxKybpuePnvpFht-24" style="edgeStyle=none;rounded=0;orthogonalLoop=1;jettySize=auto;html=1;entryX=1;entryY=0.5;entryDx=0;entryDy=0;strokeColor=#000000;strokeWidth=1;" edge="1" parent="3QFZXOHNjbc3rMJE0DkH-1" source="VQ9bmwxKybpuePnvpFht-26" target="VQ9bmwxKybpuePnvpFht-28"><mxGeometry relative="1" as="geometry"/></mxCell><mxCell id="VQ9bmwxKybpuePnvpFht-25" style="edgeStyle=none;rounded=0;orthogonalLoop=1;jettySize=auto;html=1;exitX=0;exitY=0.5;exitDx=0;exitDy=0;strokeColor=#000000;strokeWidth=1;" edge="1" parent="3QFZXOHNjbc3rMJE0DkH-1" source="VQ9bmwxKybpuePnvpFht-26" target="VQ9bmwxKybpuePnvpFht-30"><mxGeometry relative="1" as="geometry"/></mxCell><mxCell id="VQ9bmwxKybpuePnvpFht-26" value="client" style="shape=cylinder;whiteSpace=wrap;html=1;boundedLbl=1;backgroundOutline=1;" vertex="1" parent="3QFZXOHNjbc3rMJE0DkH-1"><mxGeometry x="860.0999755859375" y="310" width="60" height="80" as="geometry"/></mxCell><mxCell id="VQ9bmwxKybpuePnvpFht-27" style="edgeStyle=none;rounded=0;orthogonalLoop=1;jettySize=auto;html=1;exitX=0;exitY=0.5;exitDx=0;exitDy=0;strokeColor=#000000;strokeWidth=1;" edge="1" parent="3QFZXOHNjbc3rMJE0DkH-1" source="VQ9bmwxKybpuePnvpFht-28" target="VQ9bmwxKybpuePnvpFht-5"><mxGeometry relative="1" as="geometry"/></mxCell><mxCell id="VQ9bmwxKybpuePnvpFht-28" value="login" style="rounded=0;whiteSpace=wrap;html=1;" vertex="1" parent="3QFZXOHNjbc3rMJE0DkH-1"><mxGeometry x="690" y="260" width="110" height="60" as="geometry"/></mxCell><mxCell id="VQ9bmwxKybpuePnvpFht-29" style="edgeStyle=none;rounded=0;orthogonalLoop=1;jettySize=auto;html=1;exitX=0;exitY=0.5;exitDx=0;exitDy=0;strokeColor=#000000;strokeWidth=1;" edge="1" parent="3QFZXOHNjbc3rMJE0DkH-1" source="VQ9bmwxKybpuePnvpFht-30" target="VQ9bmwxKybpuePnvpFht-5"><mxGeometry relative="1" as="geometry"/></mxCell><mxCell id="VQ9bmwxKybpuePnvpFht-30" value="create user" style="rounded=0;whiteSpace=wrap;html=1;" vertex="1" parent="3QFZXOHNjbc3rMJE0DkH-1"><mxGeometry x="690" y="330" width="110" height="60" as="geometry"/></mxCell><mxCell id="VQ9bmwxKybpuePnvpFht-31" style="edgeStyle=none;rounded=0;orthogonalLoop=1;jettySize=auto;html=1;exitX=1;exitY=0.5;exitDx=0;exitDy=0;strokeColor=#000000;strokeWidth=1;" edge="1" parent="3QFZXOHNjbc3rMJE0DkH-1" source="VQ9bmwxKybpuePnvpFht-32" target="VQ9bmwxKybpuePnvpFht-26"><mxGeometry relative="1" as="geometry"/></mxCell><mxCell id="VQ9bmwxKybpuePnvpFht-32" value="log out" style="rounded=0;whiteSpace=wrap;html=1;" vertex="1" parent="3QFZXOHNjbc3rMJE0DkH-1"><mxGeometry x="690" y="400" width="110" height="60" as="geometry"/></mxCell><mxCell id="VQ9bmwxKybpuePnvpFht-33" style="edgeStyle=none;rounded=0;orthogonalLoop=1;jettySize=auto;html=1;exitX=0;exitY=0.5;exitDx=0;exitDy=0;strokeColor=#000000;strokeWidth=1;" edge="1" parent="3QFZXOHNjbc3rMJE0DkH-1" source="VQ9bmwxKybpuePnvpFht-35" target="VQ9bmwxKybpuePnvpFht-3"><mxGeometry relative="1" as="geometry"/></mxCell><mxCell id="VQ9bmwxKybpuePnvpFht-34" style="edgeStyle=none;rounded=0;orthogonalLoop=1;jettySize=auto;html=1;exitX=0;exitY=0.5;exitDx=0;exitDy=0;strokeColor=#000000;strokeWidth=1;" edge="1" parent="3QFZXOHNjbc3rMJE0DkH-1" source="VQ9bmwxKybpuePnvpFht-35" target="VQ9bmwxKybpuePnvpFht-36"><mxGeometry relative="1" as="geometry"/></mxCell><mxCell id="VQ9bmwxKybpuePnvpFht-35" value="challenge" style="rounded=0;whiteSpace=wrap;html=1;" vertex="1" parent="3QFZXOHNjbc3rMJE0DkH-1"><mxGeometry x="303" y="350" width="110" height="60" as="geometry"/></mxCell><mxCell id="VQ9bmwxKybpuePnvpFht-36" value="in game" style="ellipse;whiteSpace=wrap;html=1;" vertex="1" parent="3QFZXOHNjbc3rMJE0DkH-1"><mxGeometry x="90" y="270" width="80" height="50" as="geometry"/></mxCell><mxCell id="VQ9bmwxKybpuePnvpFht-37" style="edgeStyle=none;rounded=0;orthogonalLoop=1;jettySize=auto;html=1;entryX=1;entryY=0.5;entryDx=0;entryDy=0;" edge="1" parent="3QFZXOHNjbc3rMJE0DkH-1" source="VQ9bmwxKybpuePnvpFht-7" target="VQ9bmwxKybpuePnvpFht-35"><mxGeometry relative="1" as="geometry"/></mxCell><mxCell id="VQ9bmwxKybpuePnvpFht-38" style="edgeStyle=none;rounded=0;orthogonalLoop=1;jettySize=auto;html=1;entryX=1;entryY=0.5;entryDx=0;entryDy=0;strokeColor=#FF3333;strokeWidth=1;" edge="1" parent="3QFZXOHNjbc3rMJE0DkH-1" source="VQ9bmwxKybpuePnvpFht-7" target="VQ9bmwxKybpuePnvpFht-10"><mxGeometry relative="1" as="geometry"/></mxCell><mxCell id="VQ9bmwxKybpuePnvpFht-39" style="edgeStyle=none;rounded=0;orthogonalLoop=1;jettySize=auto;html=1;entryX=1;entryY=0.5;entryDx=0;entryDy=0;strokeColor=#FF3333;strokeWidth=1;" edge="1" parent="3QFZXOHNjbc3rMJE0DkH-1" source="VQ9bmwxKybpuePnvpFht-7" target="VQ9bmwxKybpuePnvpFht-14"><mxGeometry relative="1" as="geometry"/></mxCell><mxCell id="VQ9bmwxKybpuePnvpFht-40" style="edgeStyle=none;rounded=0;orthogonalLoop=1;jettySize=auto;html=1;entryX=1;entryY=0.5;entryDx=0;entryDy=0;" edge="1" parent="3QFZXOHNjbc3rMJE0DkH-1" source="VQ9bmwxKybpuePnvpFht-43" target="VQ9bmwxKybpuePnvpFht-10"><mxGeometry relative="1" as="geometry"/></mxCell><mxCell id="VQ9bmwxKybpuePnvpFht-41" style="edgeStyle=none;rounded=0;orthogonalLoop=1;jettySize=auto;html=1;entryX=1;entryY=0.5;entryDx=0;entryDy=0;" edge="1" parent="3QFZXOHNjbc3rMJE0DkH-1" source="VQ9bmwxKybpuePnvpFht-43" target="VQ9bmwxKybpuePnvpFht-14"><mxGeometry relative="1" as="geometry"/></mxCell><mxCell id="VQ9bmwxKybpuePnvpFht-42" style="edgeStyle=none;rounded=0;orthogonalLoop=1;jettySize=auto;html=1;entryX=1;entryY=0.5;entryDx=0;entryDy=0;strokeColor=#FF3333;strokeWidth=1;" edge="1" parent="3QFZXOHNjbc3rMJE0DkH-1" source="VQ9bmwxKybpuePnvpFht-43" target="VQ9bmwxKybpuePnvpFht-35"><mxGeometry relative="1" as="geometry"/></mxCell><mxCell id="VQ9bmwxKybpuePnvpFht-43" value="in game" style="ellipse;whiteSpace=wrap;html=1;" vertex="1" parent="3QFZXOHNjbc3rMJE0DkH-1"><mxGeometry x="520" y="260" width="80" height="50" as="geometry"/></mxCell><mxCell id="VQ9bmwxKybpuePnvpFht-44" style="edgeStyle=none;rounded=0;orthogonalLoop=1;jettySize=auto;html=1;" edge="1" parent="3QFZXOHNjbc3rMJE0DkH-1" source="VQ9bmwxKybpuePnvpFht-1" target="VQ9bmwxKybpuePnvpFht-23"><mxGeometry relative="1" as="geometry"/></mxCell><mxCell id="VQ9bmwxKybpuePnvpFht-45" value="" style="endArrow=classic;html=1;strokeColor=#FF3333;strokeWidth=1;" edge="1" parent="3QFZXOHNjbc3rMJE0DkH-1"><mxGeometry width="50" height="50" relative="1" as="geometry"><mxPoint x="490" y="130" as="sourcePoint"/><mxPoint x="555" y="130" as="targetPoint"/></mxGeometry></mxCell><mxCell id="VQ9bmwxKybpuePnvpFht-46" style="edgeStyle=none;rounded=0;orthogonalLoop=1;jettySize=auto;html=1;" edge="1" parent="3QFZXOHNjbc3rMJE0DkH-1"><mxGeometry relative="1" as="geometry"><mxPoint x="490" y="150" as="sourcePoint"/><mxPoint x="550" y="150" as="targetPoint"/></mxGeometry></mxCell><mxCell id="VQ9bmwxKybpuePnvpFht-47" value="Forbidden Action" style="text;html=1;resizable=0;points=[];autosize=1;align=left;verticalAlign=top;spacingTop=-4;" vertex="1" parent="3QFZXOHNjbc3rMJE0DkH-1"><mxGeometry x="565" y="117" width="110" height="20" as="geometry"/></mxCell><mxCell id="VQ9bmwxKybpuePnvpFht-48" value="Intended Action" style="text;html=1;resizable=0;points=[];autosize=1;align=left;verticalAlign=top;spacingTop=-4;" vertex="1" parent="3QFZXOHNjbc3rMJE0DkH-1"><mxGeometry x="560" y="150" width="100" height="20" as="geometry"/></mxCell><mxCell id="VQ9bmwxKybpuePnvpFht-49" style="edgeStyle=none;rounded=0;orthogonalLoop=1;jettySize=auto;html=1;exitX=1;exitY=1;exitDx=0;exitDy=0;strokeColor=#000000;strokeWidth=1;" edge="1" parent="3QFZXOHNjbc3rMJE0DkH-1" source="VQ9bmwxKybpuePnvpFht-5" target="VQ9bmwxKybpuePnvpFht-32"><mxGeometry relative="1" as="geometry"/></mxCell><mxCell id="VQ9bmwxKybpuePnvpFht-50" value="" style="endArrow=classic;html=1;strokeColor=#FF3333;strokeWidth=1;exitX=0;exitY=0.5;exitDx=0;exitDy=0;" edge="1" parent="3QFZXOHNjbc3rMJE0DkH-1" source="VQ9bmwxKybpuePnvpFht-14" target="VQ9bmwxKybpuePnvpFht-36"><mxGeometry width="50" height="50" relative="1" as="geometry"><mxPoint x="500" y="140" as="sourcePoint"/><mxPoint x="565" y="140" as="targetPoint"/></mxGeometry></mxCell></root></mxGraphModel></diagram></mxfile>